<ttFont>
    <TTGlyph name=".notdef" xMin="89" yMin="0" xMax="565" yMax="660">
      <contour>
        <pt x="89" y="660" on="1"/>
        <pt x="565" y="660" on="1"/>
        <pt x="565" y="0" on="1"/>
        <pt x="89" y="0" on="1"/>
      </contour>
      <contour>
        <pt x="281" y="340" on="1"/>
        <pt x="154" y="572" on="1"/>
        <pt x="154" y="110" on="1"/>
      </contour>
      <contour>
        <pt x="498" y="110" on="1"/>
        <pt x="498" y="572" on="1"/>
        <pt x="372" y="340" on="1"/>
      </contour>
      <contour>
        <pt x="454" y="58" on="1"/>
        <pt x="381" y="190" on="1"/>
        <pt x="329" y="293" on="1"/>
        <pt x="325" y="293" on="1"/>
        <pt x="271" y="190" on="1"/>
        <pt x="197" y="58" on="1"/>
      </contour>
      <contour>
        <pt x="329" y="387" on="1"/>
        <pt x="378" y="481" on="1"/>
        <pt x="444" y="600" on="1"/>
        <pt x="209" y="600" on="1"/>
        <pt x="275" y="481" on="1"/>
        <pt x="325" y="387" on="1"/>
      </contour>
    </TTGlyph>
    <TTGlyph name="u0E81" xMin="10" yMin="0" xMax="470" yMax="520">
      <contour>
        <pt x="70" y="520" on="1"/>
        <pt x="137" y="479" on="1"/>
        <pt x="203" y="506" on="1"/>
        <pt x="237" y="520" on="0"/>
        <pt x="270" y="520" on="1"/>
        <pt x="303" y="520" on="0"/>
        <pt x="336" y="506" on="1"/>
        <pt x="419" y="473" on="1"/>
        <pt x="470" y="452" on="0"/>
        <pt x="470" y="385" on="1"/>
        <pt x="470" y="50" on="1"/>
        <pt x="370" y="0" on="1"/>
        <pt x="370" y="385" on="1"/>
        <pt x="203" y="452" on="1"/>
        <pt x="170" y="439" on="1"/>
        <pt x="170" y="50" on="1"/>
        <pt x="70" y="0" on="1"/>
        <pt x="10" y="85" on="1"/>
        <pt x="70" y="129" on="1"/>
        <pt x="70" y="388" on="1"/>
        <pt x="10" y="438" on="1"/>
      </contour>
    </TTGlyph>
    <TTGlyph name="u0E82" xMin="70" yMin="0" xMax="470" yMax="520">
      <contour>
        <pt x="170" y="429" on="1"/>
        <pt x="230" y="385" on="1"/>
        <pt x="170" y="300" on="1"/>
        <pt x="70" y="350" on="1"/>
        <pt x="70" y="405" on="1"/>
        <pt x="70" y="452" on="0"/>
        <pt x="120" y="472" on="1"/>
        <pt x="203" y="506" on="1"/>
        <pt x="237" y="520" on="0"/>
        <pt x="270" y="520" on="1"/>
        <pt x="303" y="520" on="0"/>
        <pt x="336" y="506" on="1"/>
        <pt x="419" y="473" on="1"/>
        <pt x="470" y="452" on="0"/>
        <pt x="470" y="405" on="1"/>
        <pt x="470" y="338" on="1"/>
        <pt x="470" y="290" on="0"/>
        <pt x="433" y="275" on="1"/>
        <pt x="170" y="169" on="1"/>
        <pt x="170" y="108" on="1"/>
        <pt x="470" y="229" on="1"/>
        <pt x="470" y="50" on="1"/>
        <pt x="370" y="0" on="1"/>
        <pt x="370" y="81" on="1"/>
        <pt x="170" y="0" on="1"/>
        <pt x="70" y="50" on="1"/>
        <pt x="70" y="235" on="1"/>
        <pt x="370" y="357" on="1"/>
        <pt x="370" y="385" on="1"/>
        <pt x="203" y="452" on="1"/>
        <pt x="170" y="439" on="1"/>
      </contour>
    </TTGlyph>
    <TTGlyph name="u0E84" xMin="70" yMin="0" xMax="470" yMax="520">
      <contour>
        <pt x="470" y="50" on="1"/>
        <pt x="370" y="0" on="1"/>
        <pt x="370" y="385" on="1"/>
        <pt x="203" y="452" on="1"/>
        <pt x="170" y="439" on="1"/>
        <pt x="170" y="306" on="1"/>
        <pt x="270" y="266" on="1"/>
        <pt x="229" y="175" on="1"/>
        <pt x="170" y="199" on="1"/>
        <pt x="170" y="129" on="1"/>
        <pt x="230" y="85" on="1"/>
        <pt x="170" y="0" on="1"/>
        <pt x="70" y="50" on="1"/>
        <pt x="70" y="179" on="1"/>
        <pt x="127" y="217" on="1"/>
        <pt x="70" y="239" on="1"/>
        <pt x="70" y="405" on="1"/>
        <pt x="70" y="452" on="0"/>
        <pt x="120" y="472" on="1"/>
        <pt x="203" y="506" on="1"/>
        <pt x="237" y="520" on="0"/>
        <pt x="270" y="520" on="1"/>
        <pt x="303" y="520" on="0"/>
        <pt x="336" y="506" on="1"/>
        <pt x="419" y="473" on="1"/>
        <pt x="470" y="452" on="0"/>
        <pt x="470" y="405" on="1"/>
      </contour>
    </TTGlyph>
    <TTGlyph name="u0E87" xMin="-100" yMin="-196" xMax="170" yMax="520">
      <contour>
        <pt x="37" y="-128" on="1"/>
        <pt x="70" y="-115" on="1"/>
        <pt x="70" y="391" on="1"/>
        <pt x="40" y="413" on="1"/>
        <pt x="10" y="435" on="1"/>
        <pt x="70" y="520" on="1"/>
        <pt x="170" y="470" on="1"/>
        <pt x="170" y="-61" on="1"/>
        <pt x="170" y="-128" on="0"/>
        <pt x="120" y="-148" on="1"/>
        <pt x="37" y="-182" on="1"/>
        <pt x="3" y="-196" on="0"/>
        <pt x="-30" y="-196" on="1"/>
        <pt x="-63" y="-196" on="0"/>
        <pt x="-100" y="-182" on="1"/>
        <pt x="-46" y="-97" on="1"/>
      </contour>
    </TTGlyph>
    <TTGlyph name="u0E88" xMin="70" yMin="0" xMax="470" yMax="520">
      <contour>
        <pt x="370" y="193" on="1"/>
        <pt x="370" y="385" on="1"/>
        <pt x="203" y="452" on="1"/>
        <pt x="170" y="439" on="1"/>
        <pt x="170" y="350" on="1"/>
        <pt x="70" y="300" on="1"/>
        <pt x="70" y="405" on="1"/>
        <pt x="70" y="452" on="0"/>
        <pt x="120" y="472" on="1"/>
        <pt x="203" y="506" on="1"/>
        <pt x="237" y="520" on="0"/>
        <pt x="270" y="520" on="1"/>
        <pt x="303" y="520" on="0"/>
        <pt x="336" y="506" on="1"/>
        <pt x="419" y="473" on="1"/>
        <pt x="470" y="452" on="0"/>
        <pt x="470" y="405" on="1"/>
        <pt x="470" y="50" on="1"/>
        <pt x="370" y="0" on="1"/>
        <pt x="370" y="72" on="1"/>
        <pt x="273" y="136" on="1"/>
        <pt x="218" y="81" on="1"/>
        <pt x="112" y="187" on="1"/>
        <pt x="218" y="293" on="1"/>
      </contour>
    </TTGlyph>
    <TTGlyph name="u0E8A" xMin="70" yMin="-150" xMax="470" yMax="520">
      <contour>
        <pt x="170" y="429" on="1"/>
        <pt x="230" y="385" on="1"/>
        <pt x="170" y="300" on="1"/>
        <pt x="70" y="350" on="1"/>
        <pt x="70" y="405" on="1"/>
        <pt x="70" y="452" on="0"/>
        <pt x="120" y="472" on="1"/>
        <pt x="203" y="506" on="1"/>
        <pt x="237" y="520" on="0"/>
        <pt x="270" y="520" on="1"/>
        <pt x="303" y="520" on="0"/>
        <pt x="336" y="506" on="1"/>
        <pt x="419" y="473" on="1"/>
        <pt x="470" y="452" on="0"/>
        <pt x="470" y="405" on="1"/>
        <pt x="470" y="338" on="1"/>
        <pt x="470" y="290" on="0"/>
        <pt x="433" y="275" on="1"/>
        <pt x="170" y="169" on="1"/>
        <pt x="170" y="108" on="1"/>
        <pt x="470" y="229" on="1"/>
        <pt x="470" y="-100" on="1"/>
        <pt x="370" y="-150" on="1"/>
        <pt x="370" y="81" on="1"/>
        <pt x="170" y="0" on="1"/>
        <pt x="70" y="50" on="1"/>
        <pt x="70" y="235" on="1"/>
        <pt x="370" y="357" on="1"/>
        <pt x="370" y="385" on="1"/>
        <pt x="203" y="452" on="1"/>
        <pt x="170" y="439" on="1"/>
      </contour>
    </TTGlyph>
    <TTGlyph name="u0E8D" xMin="70" yMin="0" xMax="470" yMax="520">
      <contour>
        <pt x="70" y="470" on="1"/>
        <pt x="170" y="520" on="1"/>
        <pt x="230" y="435" on="1"/>
        <pt x="170" y="391" on="1"/>
        <pt x="170" y="321" on="1"/>
        <pt x="229" y="345" on="1"/>
        <pt x="270" y="254" on="1"/>
        <pt x="170" y="214" on="1"/>
        <pt x="170" y="135" on="1"/>
        <pt x="337" y="68" on="1"/>
        <pt x="370" y="81" on="1"/>
        <pt x="370" y="470" on="1"/>
        <pt x="470" y="520" on="1"/>
        <pt x="470" y="115" on="1"/>
        <pt x="470" y="68" on="0"/>
        <pt x="420" y="48" on="1"/>
        <pt x="337" y="14" on="1"/>
        <pt x="303" y="0" on="0"/>
        <pt x="270" y="0" on="1"/>
        <pt x="237" y="0" on="0"/>
        <pt x="204" y="14" on="1"/>
        <pt x="121" y="47" on="1"/>
        <pt x="70" y="68" on="0"/>
        <pt x="70" y="115" on="1"/>
        <pt x="70" y="281" on="1"/>
        <pt x="127" y="304" on="1"/>
        <pt x="70" y="341" on="1"/>
      </contour>
    </TTGlyph>
    <TTGlyph name="u0E94" xMin="70" yMin="0" xMax="470" yMax="520">
      <contour>
        <pt x="470" y="50" on="1"/>
        <pt x="370" y="0" on="1"/>
        <pt x="370" y="385" on="1"/>
        <pt x="203" y="452" on="1"/>
        <pt x="170" y="439" on="1"/>
        <pt x="170" y="129" on="1"/>
        <pt x="230" y="85" on="1"/>
        <pt x="170" y="0" on="1"/>
        <pt x="70" y="50" on="1"/>
        <pt x="70" y="405" on="1"/>
        <pt x="70" y="452" on="0"/>
        <pt x="120" y="472" on="1"/>
        <pt x="203" y="506" on="1"/>
        <pt x="237" y="520" on="0"/>
        <pt x="270" y="520" on="1"/>
        <pt x="303" y="520" on="0"/>
        <pt x="336" y="506" on="1"/>
        <pt x="419" y="473" on="1"/>
        <pt x="470" y="452" on="0"/>
        <pt x="470" y="405" on="1"/>
      </contour>
    </TTGlyph>
    <TTGlyph name="u0E95" xMin="70" yMin="0" xMax="470" yMax="520">
      <contour>
        <pt x="170" y="424" on="1"/>
        <pt x="170" y="129" on="1"/>
        <pt x="230" y="85" on="1"/>
        <pt x="170" y="0" on="1"/>
        <pt x="70" y="50" on="1"/>
        <pt x="70" y="405" on="1"/>
        <pt x="70" y="452" on="0"/>
        <pt x="99" y="472" on="1"/>
        <pt x="148" y="506" on="1"/>
        <pt x="168" y="520" on="0"/>
        <pt x="187" y="520" on="1"/>
        <pt x="206" y="520" on="0"/>
        <pt x="226" y="506" on="1"/>
        <pt x="270" y="476" on="1"/>
        <pt x="314" y="506" on="1"/>
        <pt x="334" y="520" on="0"/>
        <pt x="353" y="520" on="1"/>
        <pt x="372" y="520" on="0"/>
        <pt x="392" y="506" on="1"/>
        <pt x="440" y="473" on="1"/>
        <pt x="470" y="452" on="0"/>
        <pt x="470" y="405" on="1"/>
        <pt x="470" y="50" on="1"/>
        <pt x="370" y="0" on="1"/>
        <pt x="370" y="400" on="1"/>
        <pt x="314" y="439" on="1"/>
        <pt x="246" y="371" on="1"/>
      </contour>
    </TTGlyph>
    <TTGlyph name="u0E96" xMin="10" yMin="-200" xMax="470" yMax="520">
      <contour>
        <pt x="170" y="129" on="1"/>
        <pt x="230" y="85" on="1"/>
        <pt x="170" y="0" on="1"/>
        <pt x="70" y="50" on="1"/>
        <pt x="70" y="388" on="1"/>
        <pt x="10" y="438" on="1"/>
        <pt x="70" y="520" on="1"/>
        <pt x="137" y="479" on="1"/>
        <pt x="203" y="506" on="1"/>
        <pt x="237" y="520" on="0"/>
        <pt x="270" y="520" on="1"/>
        <pt x="303" y="520" on="0"/>
        <pt x="336" y="506" on="1"/>
        <pt x="419" y="473" on="1"/>
        <pt x="470" y="452" on="0"/>
        <pt x="470" y="385" on="1"/>
        <pt x="470" y="-150" on="1"/>
        <pt x="370" y="-200" on="1"/>
        <pt x="370" y="385" on="1"/>
        <pt x="203" y="452" on="1"/>
        <pt x="170" y="439" on="1"/>
      </contour>
    </TTGlyph>
    <TTGlyph name="u0E97" xMin="70" yMin="0" xMax="704" yMax="520">
      <contour>
        <pt x="437" y="115" on="1"/>
        <pt x="437" y="68" on="0"/>
        <pt x="370" y="34" on="1"/>
        <pt x="303" y="0" on="0"/>
        <pt x="270" y="0" on="1"/>
        <pt x="237" y="0" on="0"/>
        <pt x="204" y="14" on="1"/>
        <pt x="121" y="47" on="1"/>
        <pt x="70" y="68" on="0"/>
        <pt x="70" y="115" on="1"/>
        <pt x="70" y="227" on="1"/>
        <pt x="70" y="270" on="0"/>
        <pt x="130" y="332" on="0"/>
        <pt x="130" y="348" on="1"/>
        <pt x="130" y="391" on="1"/>
        <pt x="70" y="435" on="1"/>
        <pt x="130" y="520" on="1"/>
        <pt x="230" y="470" on="1"/>
        <pt x="230" y="348" on="1"/>
        <pt x="230" y="305" on="0"/>
        <pt x="170" y="243" on="0"/>
        <pt x="170" y="227" on="1"/>
        <pt x="170" y="135" on="1"/>
        <pt x="337" y="68" on="1"/>
        <pt x="337" y="405" on="1"/>
        <pt x="337" y="452" on="0"/>
        <pt x="404" y="486" on="1"/>
        <pt x="471" y="520" on="0"/>
        <pt x="504" y="520" on="1"/>
        <pt x="537" y="520" on="0"/>
        <pt x="570" y="506" on="1"/>
        <pt x="653" y="473" on="1"/>
        <pt x="704" y="452" on="0"/>
        <pt x="704" y="405" on="1"/>
        <pt x="704" y="50" on="1"/>
        <pt x="604" y="0" on="1"/>
        <pt x="604" y="385" on="1"/>
        <pt x="437" y="452" on="1"/>
      </contour>
    </TTGlyph>
    <TTGlyph name="u0E99" xMin="10" yMin="0" xMax="470" yMax="520">
      <contour>
        <pt x="137" y="41" on="1"/>
        <pt x="70" y="0" on="1"/>
        <pt x="70" y="391" on="1"/>
        <pt x="10" y="435" on="1"/>
        <pt x="70" y="520" on="1"/>
        <pt x="170" y="470" on="1"/>
        <pt x="170" y="135" on="1"/>
        <pt x="337" y="68" on="1"/>
        <pt x="370" y="81" on="1"/>
        <pt x="370" y="470" on="1"/>
        <pt x="470" y="520" on="1"/>
        <pt x="470" y="115" on="1"/>
        <pt x="470" y="68" on="0"/>
        <pt x="420" y="48" on="1"/>
        <pt x="337" y="14" on="1"/>
        <pt x="303" y="0" on="0"/>
        <pt x="270" y="0" on="1"/>
        <pt x="237" y="0" on="0"/>
        <pt x="204" y="14" on="1"/>
      </contour>
    </TTGlyph>
    <TTGlyph name="u0E9A" xMin="70" yMin="0" xMax="470" yMax="520">
      <contour>
        <pt x="70" y="227" on="1"/>
        <pt x="70" y="270" on="0"/>
        <pt x="130" y="332" on="0"/>
        <pt x="130" y="348" on="1"/>
        <pt x="130" y="391" on="1"/>
        <pt x="70" y="435" on="1"/>
        <pt x="130" y="520" on="1"/>
        <pt x="230" y="470" on="1"/>
        <pt x="230" y="348" on="1"/>
        <pt x="230" y="305" on="0"/>
        <pt x="170" y="243" on="0"/>
        <pt x="170" y="227" on="1"/>
        <pt x="170" y="135" on="1"/>
        <pt x="337" y="68" on="1"/>
        <pt x="370" y="81" on="1"/>
        <pt x="370" y="470" on="1"/>
        <pt x="470" y="520" on="1"/>
        <pt x="470" y="115" on="1"/>
        <pt x="470" y="68" on="0"/>
        <pt x="420" y="48" on="1"/>
        <pt x="337" y="14" on="1"/>
        <pt x="303" y="0" on="0"/>
        <pt x="270" y="0" on="1"/>
        <pt x="237" y="0" on="0"/>
        <pt x="204" y="14" on="1"/>
        <pt x="121" y="47" on="1"/>
        <pt x="70" y="68" on="0"/>
        <pt x="70" y="115" on="1"/>
      </contour>
    </TTGlyph>
    <TTGlyph name="u0E9B" xMin="70" yMin="0" xMax="470" yMax="720">
      <contour>
        <pt x="70" y="227" on="1"/>
        <pt x="70" y="270" on="0"/>
        <pt x="130" y="332" on="0"/>
        <pt x="130" y="348" on="1"/>
        <pt x="130" y="391" on="1"/>
        <pt x="70" y="435" on="1"/>
        <pt x="130" y="520" on="1"/>
        <pt x="230" y="470" on="1"/>
        <pt x="230" y="348" on="1"/>
        <pt x="230" y="305" on="0"/>
        <pt x="170" y="243" on="0"/>
        <pt x="170" y="227" on="1"/>
        <pt x="170" y="135" on="1"/>
        <pt x="337" y="68" on="1"/>
        <pt x="370" y="81" on="1"/>
        <pt x="370" y="670" on="1"/>
        <pt x="470" y="720" on="1"/>
        <pt x="470" y="115" on="1"/>
        <pt x="470" y="68" on="0"/>
        <pt x="420" y="48" on="1"/>
        <pt x="337" y="14" on="1"/>
        <pt x="303" y="0" on="0"/>
        <pt x="270" y="0" on="1"/>
        <pt x="237" y="0" on="0"/>
        <pt x="204" y="14" on="1"/>
        <pt x="121" y="47" on="1"/>
        <pt x="70" y="68" on="0"/>
        <pt x="70" y="115" on="1"/>
      </contour>
    </TTGlyph>
    <TTGlyph name="u0E9C" xMin="70" yMin="0" xMax="590" yMax="520">
      <contour>
        <pt x="470" y="115" on="1"/>
        <pt x="470" y="68" on="0"/>
        <pt x="440" y="47" on="1"/>
        <pt x="392" y="14" on="1"/>
        <pt x="372" y="0" on="0"/>
        <pt x="353" y="0" on="1"/>
        <pt x="334" y="0" on="0"/>
        <pt x="314" y="14" on="1"/>
        <pt x="270" y="44" on="1"/>
        <pt x="226" y="14" on="1"/>
        <pt x="206" y="0" on="0"/>
        <pt x="187" y="0" on="1"/>
        <pt x="168" y="0" on="0"/>
        <pt x="148" y="14" on="1"/>
        <pt x="99" y="48" on="1"/>
        <pt x="70" y="68" on="0"/>
        <pt x="70" y="115" on="1"/>
        <pt x="70" y="470" on="1"/>
        <pt x="170" y="520" on="1"/>
        <pt x="230" y="435" on="1"/>
        <pt x="170" y="391" on="1"/>
        <pt x="170" y="96" on="1"/>
        <pt x="246" y="149" on="1"/>
        <pt x="314" y="81" on="1"/>
        <pt x="370" y="120" on="1"/>
        <pt x="370" y="391" on="1"/>
        <pt x="310" y="435" on="1"/>
        <pt x="370" y="520" on="1"/>
        <pt x="470" y="470" on="1"/>
        <pt x="470" y="468" on="1"/>
        <pt x="590" y="468" on="1"/>
        <pt x="540" y="392" on="1"/>
        <pt x="470" y="392" on="1"/>
      </contour>
    </TTGlyph>
    <TTGlyph name="u0E9D" xMin="70" yMin="0" xMax="470" yMax="720">
      <contour>
        <pt x="470" y="115" on="1"/>
        <pt x="470" y="68" on="0"/>
        <pt x="440" y="47" on="1"/>
        <pt x="392" y="14" on="1"/>
        <pt x="372" y="0" on="0"/>
        <pt x="353" y="0" on="1"/>
        <pt x="334" y="0" on="0"/>
        <pt x="314" y="14" on="1"/>
        <pt x="270" y="44" on="1"/>
        <pt x="226" y="14" on="1"/>
        <pt x="206" y="0" on="0"/>
        <pt x="187" y="0" on="1"/>
        <pt x="168" y="0" on="0"/>
        <pt x="148" y="14" on="1"/>
        <pt x="99" y="48" on="1"/>
        <pt x="70" y="68" on="0"/>
        <pt x="70" y="115" on="1"/>
        <pt x="70" y="470" on="1"/>
        <pt x="170" y="520" on="1"/>
        <pt x="230" y="435" on="1"/>
        <pt x="170" y="391" on="1"/>
        <pt x="170" y="96" on="1"/>
        <pt x="246" y="149" on="1"/>
        <pt x="314" y="81" on="1"/>
        <pt x="370" y="120" on="1"/>
        <pt x="370" y="670" on="1"/>
        <pt x="470" y="720" on="1"/>
      </contour>
    </TTGlyph>
    <TTGlyph name="u0E9E" xMin="70" yMin="0" xMax="704" yMax="520">
      <contour>
        <pt x="604" y="470" on="1"/>
        <pt x="704" y="520" on="1"/>
        <pt x="704" y="115" on="1"/>
        <pt x="704" y="68" on="0"/>
        <pt x="637" y="34" on="1"/>
        <pt x="570" y="0" on="0"/>
        <pt x="537" y="0" on="1"/>
        <pt x="504" y="0" on="0"/>
        <pt x="471" y="14" on="1"/>
        <pt x="391" y="46" on="1"/>
        <pt x="381" y="40" on="0"/>
        <pt x="370" y="34" on="1"/>
        <pt x="303" y="0" on="0"/>
        <pt x="270" y="0" on="1"/>
        <pt x="237" y="0" on="0"/>
        <pt x="204" y="14" on="1"/>
        <pt x="121" y="47" on="1"/>
        <pt x="70" y="68" on="0"/>
        <pt x="70" y="115" on="1"/>
        <pt x="70" y="227" on="1"/>
        <pt x="70" y="270" on="0"/>
        <pt x="130" y="332" on="0"/>
        <pt x="130" y="348" on="1"/>
        <pt x="130" y="391" on="1"/>
        <pt x="70" y="435" on="1"/>
        <pt x="130" y="520" on="1"/>
        <pt x="230" y="470" on="1"/>
        <pt x="230" y="348" on="1"/>
        <pt x="230" y="305" on="0"/>
        <pt x="170" y="243" on="0"/>
        <pt x="170" y="227" on="1"/>
        <pt x="170" y="135" on="1"/>
        <pt x="337" y="68" on="1"/>
        <pt x="337" y="470" on="1"/>
        <pt x="437" y="520" on="1"/>
        <pt x="437" y="135" on="1"/>
        <pt x="604" y="68" on="1"/>
      </contour>
    </TTGlyph>
    <TTGlyph name="u0E9F" xMin="70" yMin="0" xMax="704" yMax="720">
      <contour>
        <pt x="604" y="670" on="1"/>
        <pt x="704" y="720" on="1"/>
        <pt x="704" y="115" on="1"/>
        <pt x="704" y="68" on="0"/>
        <pt x="637" y="34" on="1"/>
        <pt x="570" y="0" on="0"/>
        <pt x="537" y="0" on="1"/>
        <pt x="504" y="0" on="0"/>
        <pt x="471" y="14" on="1"/>
        <pt x="391" y="46" on="1"/>
        <pt x="381" y="40" on="0"/>
        <pt x="370" y="34" on="1"/>
        <pt x="303" y="0" on="0"/>
        <pt x="270" y="0" on="1"/>
        <pt x="237" y="0" on="0"/>
        <pt x="204" y="14" on="1"/>
        <pt x="121" y="47" on="1"/>
        <pt x="70" y="68" on="0"/>
        <pt x="70" y="115" on="1"/>
        <pt x="70" y="227" on="1"/>
        <pt x="70" y="270" on="0"/>
        <pt x="130" y="332" on="0"/>
        <pt x="130" y="348" on="1"/>
        <pt x="130" y="391" on="1"/>
        <pt x="70" y="435" on="1"/>
        <pt x="130" y="520" on="1"/>
        <pt x="230" y="470" on="1"/>
        <pt x="230" y="348" on="1"/>
        <pt x="230" y="305" on="0"/>
        <pt x="170" y="243" on="0"/>
        <pt x="170" y="227" on="1"/>
        <pt x="170" y="135" on="1"/>
        <pt x="337" y="68" on="1"/>
        <pt x="337" y="470" on="1"/>
        <pt x="437" y="520" on="1"/>
        <pt x="437" y="135" on="1"/>
        <pt x="604" y="68" on="1"/>
      </contour>
    </TTGlyph>
    <TTGlyph name="u0EA1" xMin="10" yMin="0" xMax="470" yMax="520">
      <contour>
        <pt x="70" y="470" on="1"/>
        <pt x="170" y="520" on="1"/>
        <pt x="170" y="135" on="1"/>
        <pt x="337" y="68" on="1"/>
        <pt x="370" y="81" on="1"/>
        <pt x="370" y="470" on="1"/>
        <pt x="470" y="520" on="1"/>
        <pt x="470" y="115" on="1"/>
        <pt x="470" y="68" on="0"/>
        <pt x="420" y="48" on="1"/>
        <pt x="337" y="14" on="1"/>
        <pt x="303" y="0" on="0"/>
        <pt x="270" y="0" on="1"/>
        <pt x="237" y="0" on="0"/>
        <pt x="204" y="14" on="1"/>
        <pt x="137" y="41" on="1"/>
        <pt x="70" y="0" on="1"/>
        <pt x="10" y="82" on="1"/>
        <pt x="70" y="132" on="1"/>
      </contour>
    </TTGlyph>
    <TTGlyph name="u0EA2" xMin="70" yMin="0" xMax="470" yMax="720">
      <contour>
        <pt x="70" y="470" on="1"/>
        <pt x="170" y="520" on="1"/>
        <pt x="230" y="435" on="1"/>
        <pt x="170" y="391" on="1"/>
        <pt x="170" y="321" on="1"/>
        <pt x="229" y="345" on="1"/>
        <pt x="270" y="254" on="1"/>
        <pt x="170" y="214" on="1"/>
        <pt x="170" y="135" on="1"/>
        <pt x="337" y="68" on="1"/>
        <pt x="370" y="81" on="1"/>
        <pt x="370" y="670" on="1"/>
        <pt x="470" y="720" on="1"/>
        <pt x="470" y="115" on="1"/>
        <pt x="470" y="68" on="0"/>
        <pt x="420" y="48" on="1"/>
        <pt x="337" y="14" on="1"/>
        <pt x="303" y="0" on="0"/>
        <pt x="270" y="0" on="1"/>
        <pt x="237" y="0" on="0"/>
        <pt x="204" y="14" on="1"/>
        <pt x="121" y="47" on="1"/>
        <pt x="70" y="68" on="0"/>
        <pt x="70" y="115" on="1"/>
        <pt x="70" y="281" on="1"/>
        <pt x="127" y="304" on="1"/>
        <pt x="70" y="341" on="1"/>
      </contour>
    </TTGlyph>
    <TTGlyph name="u0EA3" xMin="70" yMin="0" xMax="470" yMax="520">
      <contour>
        <pt x="70" y="219" on="1"/>
        <pt x="170" y="269" on="1"/>
        <pt x="230" y="184" on="1"/>
        <pt x="170" y="140" on="1"/>
        <pt x="170" y="135" on="1"/>
        <pt x="337" y="68" on="1"/>
        <pt x="370" y="81" on="1"/>
        <pt x="370" y="216" on="1"/>
        <pt x="70" y="338" on="1"/>
        <pt x="70" y="405" on="1"/>
        <pt x="70" y="452" on="0"/>
        <pt x="120" y="472" on="1"/>
        <pt x="203" y="506" on="1"/>
        <pt x="237" y="520" on="0"/>
        <pt x="270" y="520" on="1"/>
        <pt x="303" y="520" on="0"/>
        <pt x="336" y="506" on="1"/>
        <pt x="419" y="473" on="1"/>
        <pt x="370" y="385" on="1"/>
        <pt x="203" y="452" on="1"/>
        <pt x="170" y="439" on="1"/>
        <pt x="170" y="404" on="1"/>
        <pt x="433" y="298" on="1"/>
        <pt x="470" y="283" on="0"/>
        <pt x="470" y="235" on="1"/>
        <pt x="470" y="115" on="1"/>
        <pt x="470" y="68" on="0"/>
        <pt x="420" y="48" on="1"/>
        <pt x="337" y="14" on="1"/>
        <pt x="303" y="0" on="0"/>
        <pt x="270" y="0" on="1"/>
        <pt x="237" y="0" on="0"/>
        <pt x="204" y="14" on="1"/>
        <pt x="121" y="47" on="1"/>
        <pt x="70" y="68" on="0"/>
        <pt x="70" y="115" on="1"/>
      </contour>
    </TTGlyph>
    <TTGlyph name="u0EA5" xMin="70" yMin="0" xMax="470" yMax="520">
      <contour>
        <pt x="370" y="206" on="1"/>
        <pt x="370" y="385" on="1"/>
        <pt x="203" y="452" on="1"/>
        <pt x="170" y="439" on="1"/>
        <pt x="170" y="350" on="1"/>
        <pt x="70" y="300" on="1"/>
        <pt x="70" y="405" on="1"/>
        <pt x="70" y="452" on="0"/>
        <pt x="120" y="472" on="1"/>
        <pt x="203" y="506" on="1"/>
        <pt x="237" y="520" on="0"/>
        <pt x="270" y="520" on="1"/>
        <pt x="303" y="520" on="0"/>
        <pt x="336" y="506" on="1"/>
        <pt x="419" y="473" on="1"/>
        <pt x="470" y="452" on="0"/>
        <pt x="470" y="405" on="1"/>
        <pt x="470" y="50" on="1"/>
        <pt x="370" y="0" on="1"/>
        <pt x="370" y="98" on="1"/>
        <pt x="170" y="179" on="1"/>
        <pt x="170" y="129" on="1"/>
        <pt x="230" y="85" on="1"/>
        <pt x="170" y="0" on="1"/>
        <pt x="70" y="50" on="1"/>
        <pt x="70" y="237" on="1"/>
        <pt x="170" y="287" on="1"/>
      </contour>
    </TTGlyph>
    <TTGlyph name="u0EA7" xMin="70" yMin="0" xMax="470" yMax="520">
      <contour>
        <pt x="470" y="115" on="1"/>
        <pt x="470" y="68" on="0"/>
        <pt x="420" y="48" on="1"/>
        <pt x="337" y="14" on="1"/>
        <pt x="303" y="0" on="0"/>
        <pt x="270" y="0" on="1"/>
        <pt x="237" y="0" on="0"/>
        <pt x="204" y="14" on="1"/>
        <pt x="121" y="47" on="1"/>
        <pt x="70" y="68" on="0"/>
        <pt x="70" y="115" on="1"/>
        <pt x="70" y="219" on="1"/>
        <pt x="170" y="269" on="1"/>
        <pt x="230" y="184" on="1"/>
        <pt x="170" y="140" on="1"/>
        <pt x="170" y="135" on="1"/>
        <pt x="337" y="68" on="1"/>
        <pt x="370" y="81" on="1"/>
        <pt x="370" y="385" on="1"/>
        <pt x="203" y="452" on="1"/>
        <pt x="170" y="439" on="1"/>
        <pt x="170" y="390" on="1"/>
        <pt x="70" y="340" on="1"/>
        <pt x="70" y="405" on="1"/>
        <pt x="70" y="452" on="0"/>
        <pt x="120" y="472" on="1"/>
        <pt x="203" y="506" on="1"/>
        <pt x="237" y="520" on="0"/>
        <pt x="270" y="520" on="1"/>
        <pt x="303" y="520" on="0"/>
        <pt x="336" y="506" on="1"/>
        <pt x="419" y="473" on="1"/>
        <pt x="470" y="452" on="0"/>
        <pt x="470" y="405" on="1"/>
      </contour>
    </TTGlyph>
    <TTGlyph name="u0EAA" xMin="70" yMin="0" xMax="520" yMax="520">
      <contour>
        <pt x="470" y="368" on="1"/>
        <pt x="470" y="50" on="1"/>
        <pt x="370" y="0" on="1"/>
        <pt x="370" y="98" on="1"/>
        <pt x="170" y="179" on="1"/>
        <pt x="170" y="129" on="1"/>
        <pt x="230" y="85" on="1"/>
        <pt x="170" y="0" on="1"/>
        <pt x="70" y="50" on="1"/>
        <pt x="70" y="237" on="1"/>
        <pt x="170" y="287" on="1"/>
        <pt x="370" y="206" on="1"/>
        <pt x="370" y="287" on="1"/>
        <pt x="343" y="265" on="1"/>
        <pt x="70" y="378" on="1"/>
        <pt x="70" y="405" on="1"/>
        <pt x="70" y="452" on="0"/>
        <pt x="120" y="472" on="1"/>
        <pt x="203" y="506" on="1"/>
        <pt x="237" y="520" on="0"/>
        <pt x="270" y="520" on="1"/>
        <pt x="303" y="520" on="0"/>
        <pt x="336" y="506" on="1"/>
        <pt x="419" y="473" on="1"/>
        <pt x="449" y="460" on="0"/>
        <pt x="462" y="439" on="1"/>
        <pt x="520" y="489" on="1"/>
        <pt x="520" y="408" on="1"/>
      </contour>
      <contour>
        <pt x="370" y="359" on="1"/>
        <pt x="370" y="385" on="1"/>
        <pt x="203" y="452" on="1"/>
        <pt x="170" y="439" on="1"/>
        <pt x="170" y="405" on="1"/>
        <pt x="343" y="336" on="1"/>
      </contour>
    </TTGlyph>
    <TTGlyph name="u0EAB" xMin="70" yMin="0" xMax="704" yMax="520">
      <contour>
        <pt x="437" y="115" on="1"/>
        <pt x="437" y="68" on="0"/>
        <pt x="370" y="34" on="1"/>
        <pt x="303" y="0" on="0"/>
        <pt x="270" y="0" on="1"/>
        <pt x="237" y="0" on="0"/>
        <pt x="204" y="14" on="1"/>
        <pt x="121" y="47" on="1"/>
        <pt x="70" y="68" on="0"/>
        <pt x="70" y="115" on="1"/>
        <pt x="70" y="227" on="1"/>
        <pt x="70" y="270" on="0"/>
        <pt x="130" y="332" on="0"/>
        <pt x="130" y="348" on="1"/>
        <pt x="130" y="391" on="1"/>
        <pt x="70" y="435" on="1"/>
        <pt x="130" y="520" on="1"/>
        <pt x="230" y="470" on="1"/>
        <pt x="230" y="348" on="1"/>
        <pt x="230" y="305" on="0"/>
        <pt x="170" y="243" on="0"/>
        <pt x="170" y="227" on="1"/>
        <pt x="170" y="135" on="1"/>
        <pt x="337" y="68" on="1"/>
        <pt x="337" y="438" on="1"/>
        <pt x="307" y="465" on="1"/>
        <pt x="347" y="520" on="1"/>
        <pt x="404" y="479" on="1"/>
        <pt x="471" y="520" on="0"/>
        <pt x="504" y="520" on="1"/>
        <pt x="537" y="520" on="0"/>
        <pt x="570" y="506" on="1"/>
        <pt x="653" y="473" on="1"/>
        <pt x="704" y="452" on="0"/>
        <pt x="704" y="385" on="1"/>
        <pt x="704" y="50" on="1"/>
        <pt x="604" y="0" on="1"/>
        <pt x="604" y="385" on="1"/>
        <pt x="437" y="452" on="1"/>
      </contour>
    </TTGlyph>
    <TTGlyph name="u0EAD" xMin="70" yMin="0" xMax="470" yMax="520">
      <contour>
        <pt x="370" y="359" on="1"/>
        <pt x="370" y="385" on="1"/>
        <pt x="203" y="452" on="1"/>
        <pt x="170" y="439" on="1"/>
        <pt x="170" y="405" on="1"/>
        <pt x="343" y="336" on="1"/>
      </contour>
      <contour>
        <pt x="370" y="257" on="1"/>
        <pt x="343" y="235" on="1"/>
        <pt x="70" y="348" on="1"/>
        <pt x="70" y="405" on="1"/>
        <pt x="70" y="452" on="0"/>
        <pt x="120" y="472" on="1"/>
        <pt x="203" y="506" on="1"/>
        <pt x="237" y="520" on="0"/>
        <pt x="270" y="520" on="1"/>
        <pt x="303" y="520" on="0"/>
        <pt x="336" y="506" on="1"/>
        <pt x="419" y="473" on="1"/>
        <pt x="470" y="452" on="0"/>
        <pt x="470" y="405" on="1"/>
        <pt x="470" y="115" on="1"/>
        <pt x="470" y="68" on="0"/>
        <pt x="420" y="48" on="1"/>
        <pt x="337" y="14" on="1"/>
        <pt x="303" y="0" on="0"/>
        <pt x="270" y="0" on="1"/>
        <pt x="237" y="0" on="0"/>
        <pt x="204" y="14" on="1"/>
        <pt x="121" y="47" on="1"/>
        <pt x="70" y="68" on="0"/>
        <pt x="70" y="115" on="1"/>
        <pt x="70" y="219" on="1"/>
        <pt x="170" y="269" on="1"/>
        <pt x="230" y="184" on="1"/>
        <pt x="170" y="140" on="1"/>
        <pt x="170" y="135" on="1"/>
        <pt x="337" y="68" on="1"/>
        <pt x="370" y="81" on="1"/>
      </contour>
    </TTGlyph>
    <TTGlyph name="u0EAE" xMin="70" yMin="0" xMax="470" yMax="650">
      <contour>
        <pt x="370" y="385" on="1"/>
        <pt x="203" y="452" on="1"/>
        <pt x="170" y="439" on="1"/>
        <pt x="170" y="404" on="1"/>
        <pt x="433" y="298" on="1"/>
        <pt x="470" y="283" on="0"/>
        <pt x="470" y="235" on="1"/>
        <pt x="470" y="115" on="1"/>
        <pt x="470" y="68" on="0"/>
        <pt x="420" y="48" on="1"/>
        <pt x="337" y="14" on="1"/>
        <pt x="303" y="0" on="0"/>
        <pt x="270" y="0" on="1"/>
        <pt x="237" y="0" on="0"/>
        <pt x="204" y="14" on="1"/>
        <pt x="121" y="47" on="1"/>
        <pt x="70" y="68" on="0"/>
        <pt x="70" y="115" on="1"/>
        <pt x="70" y="219" on="1"/>
        <pt x="170" y="269" on="1"/>
        <pt x="230" y="184" on="1"/>
        <pt x="170" y="140" on="1"/>
        <pt x="170" y="135" on="1"/>
        <pt x="337" y="68" on="1"/>
        <pt x="370" y="81" on="1"/>
        <pt x="370" y="216" on="1"/>
        <pt x="70" y="338" on="1"/>
        <pt x="70" y="405" on="1"/>
        <pt x="70" y="452" on="0"/>
        <pt x="120" y="472" on="1"/>
        <pt x="203" y="506" on="1"/>
        <pt x="237" y="520" on="0"/>
        <pt x="270" y="520" on="1"/>
        <pt x="303" y="520" on="0"/>
        <pt x="336" y="506" on="1"/>
        <pt x="370" y="492" on="1"/>
        <pt x="370" y="600" on="1"/>
        <pt x="470" y="650" on="1"/>
        <pt x="470" y="435" on="1"/>
      </contour>
    </TTGlyph>
    <TTGlyph name="u0EAF" xMin="70" yMin="-173" xMax="586" yMax="520">
      <contour>
        <pt x="376" y="281" on="1"/>
        <pt x="337" y="265" on="1"/>
        <pt x="303" y="251" on="0"/>
        <pt x="270" y="251" on="1"/>
        <pt x="237" y="251" on="0"/>
        <pt x="204" y="265" on="1"/>
        <pt x="121" y="298" on="1"/>
        <pt x="70" y="319" on="0"/>
        <pt x="70" y="366" on="1"/>
        <pt x="70" y="470" on="1"/>
        <pt x="170" y="520" on="1"/>
        <pt x="230" y="435" on="1"/>
        <pt x="170" y="391" on="1"/>
        <pt x="170" y="386" on="1"/>
        <pt x="337" y="319" on="1"/>
        <pt x="370" y="332" on="1"/>
        <pt x="408" y="345" on="1"/>
        <pt x="496" y="520" on="1"/>
        <pt x="586" y="475" on="1"/>
        <pt x="259" y="-173" on="1"/>
        <pt x="170" y="-128" on="1"/>
      </contour>
    </TTGlyph>
    <TTGlyph name="u0EB0" xMin="70" yMin="20" xMax="470" yMax="500">
      <contour>
        <pt x="370" y="371" on="1"/>
        <pt x="370" y="500" on="1"/>
        <pt x="470" y="450" on="1"/>
        <pt x="470" y="405" on="1"/>
        <pt x="470" y="358" on="0"/>
        <pt x="420" y="338" on="1"/>
        <pt x="337" y="304" on="1"/>
        <pt x="303" y="290" on="0"/>
        <pt x="270" y="290" on="1"/>
        <pt x="237" y="290" on="0"/>
        <pt x="204" y="304" on="1"/>
        <pt x="121" y="337" on="1"/>
        <pt x="70" y="358" on="0"/>
        <pt x="70" y="405" on="1"/>
        <pt x="70" y="450" on="1"/>
        <pt x="170" y="500" on="1"/>
        <pt x="230" y="415" on="1"/>
        <pt x="218" y="406" on="1"/>
        <pt x="337" y="358" on="1"/>
      </contour>
      <contour>
        <pt x="370" y="101" on="1"/>
        <pt x="370" y="230" on="1"/>
        <pt x="470" y="180" on="1"/>
        <pt x="470" y="135" on="1"/>
        <pt x="470" y="88" on="0"/>
        <pt x="420" y="68" on="1"/>
        <pt x="337" y="34" on="1"/>
        <pt x="303" y="20" on="0"/>
        <pt x="270" y="20" on="1"/>
        <pt x="237" y="20" on="0"/>
        <pt x="204" y="34" on="1"/>
        <pt x="121" y="67" on="1"/>
        <pt x="70" y="88" on="0"/>
        <pt x="70" y="135" on="1"/>
        <pt x="70" y="180" on="1"/>
        <pt x="170" y="230" on="1"/>
        <pt x="230" y="145" on="1"/>
        <pt x="218" y="136" on="1"/>
        <pt x="337" y="88" on="1"/>
      </contour>
    </TTGlyph>
    <TTGlyph name="u0EB1" xMin="-470" yMin="550" xMax="-70" yMax="760">
      <contour>
        <pt x="-170" y="631" on="1"/>
        <pt x="-170" y="760" on="1"/>
        <pt x="-70" y="710" on="1"/>
        <pt x="-70" y="665" on="1"/>
        <pt x="-70" y="618" on="0"/>
        <pt x="-120" y="598" on="1"/>
        <pt x="-203" y="564" on="1"/>
        <pt x="-237" y="550" on="0"/>
        <pt x="-270" y="550" on="1"/>
        <pt x="-303" y="550" on="0"/>
        <pt x="-336" y="564" on="1"/>
        <pt x="-419" y="597" on="1"/>
        <pt x="-470" y="618" on="0"/>
        <pt x="-470" y="665" on="1"/>
        <pt x="-470" y="710" on="1"/>
        <pt x="-370" y="760" on="1"/>
        <pt x="-310" y="675" on="1"/>
        <pt x="-322" y="666" on="1"/>
        <pt x="-203" y="618" on="1"/>
      </contour>
    </TTGlyph>
    <TTGlyph name="u0EB2" xMin="10" yMin="0" xMax="170" yMax="520">
      <contour>
        <pt x="170" y="50" on="1"/>
        <pt x="70" y="0" on="1"/>
        <pt x="70" y="391" on="1"/>
        <pt x="10" y="435" on="1"/>
        <pt x="70" y="520" on="1"/>
        <pt x="170" y="470" on="1"/>
      </contour>
    </TTGlyph>
    <TTGlyph name="u0EB3" xMin="-131" yMin="0" xMax="170" yMax="812">
      <contour>
        <pt x="170" y="50" on="1"/>
        <pt x="70" y="0" on="1"/>
        <pt x="70" y="391" on="1"/>
        <pt x="10" y="435" on="1"/>
        <pt x="70" y="520" on="1"/>
        <pt x="170" y="470" on="1"/>
      </contour>
      <contour>
        <pt x="-25" y="812" on="1"/>
        <pt x="81" y="706" on="1"/>
        <pt x="-25" y="600" on="1"/>
        <pt x="-131" y="706" on="1"/>
      </contour>
    </TTGlyph>
    <TTGlyph name="u0EB4" xMin="-470" yMin="550" xMax="-70" yMax="760">
      <contour>
        <pt x="-470" y="645" on="1"/>
        <pt x="-470" y="692" on="0"/>
        <pt x="-420" y="712" on="1"/>
        <pt x="-337" y="746" on="1"/>
        <pt x="-303" y="760" on="0"/>
        <pt x="-270" y="760" on="1"/>
        <pt x="-237" y="760" on="0"/>
        <pt x="-204" y="746" on="1"/>
        <pt x="-121" y="713" on="1"/>
        <pt x="-70" y="692" on="0"/>
        <pt x="-70" y="645" on="1"/>
        <pt x="-70" y="625" on="1"/>
        <pt x="-120" y="550" on="1"/>
        <pt x="-241" y="550" on="1"/>
        <pt x="-187" y="632" on="1"/>
        <pt x="-337" y="692" on="1"/>
        <pt x="-370" y="679" on="1"/>
        <pt x="-310" y="635" on="1"/>
        <pt x="-370" y="550" on="1"/>
        <pt x="-470" y="600" on="1"/>
      </contour>
    </TTGlyph>
    <TTGlyph name="u0EB5" xMin="-470" yMin="550" xMax="22" yMax="760">
      <contour>
        <pt x="-80" y="610" on="1"/>
        <pt x="22" y="610" on="1"/>
        <pt x="-18" y="550" on="1"/>
        <pt x="-266" y="550" on="1"/>
        <pt x="-226" y="610" on="1"/>
        <pt x="-201" y="610" on="1"/>
        <pt x="-187" y="632" on="1"/>
        <pt x="-337" y="692" on="1"/>
        <pt x="-370" y="679" on="1"/>
        <pt x="-310" y="635" on="1"/>
        <pt x="-370" y="550" on="1"/>
        <pt x="-470" y="600" on="1"/>
        <pt x="-470" y="645" on="1"/>
        <pt x="-470" y="692" on="0"/>
        <pt x="-420" y="712" on="1"/>
        <pt x="-337" y="746" on="1"/>
        <pt x="-303" y="760" on="0"/>
        <pt x="-270" y="760" on="1"/>
        <pt x="-237" y="760" on="0"/>
        <pt x="-204" y="746" on="1"/>
        <pt x="-121" y="713" on="1"/>
        <pt x="-70" y="692" on="0"/>
        <pt x="-70" y="645" on="1"/>
        <pt x="-70" y="625" on="1"/>
      </contour>
    </TTGlyph>
    <TTGlyph name="u0EB6" xMin="-470" yMin="550" xMax="-70" yMax="760">
      <contour>
        <pt x="-220" y="648" on="1"/>
        <pt x="-267" y="596" on="1"/>
        <pt x="-322" y="645" on="1"/>
        <pt x="-275" y="698" on="1"/>
      </contour>
      <contour>
        <pt x="-470" y="645" on="1"/>
        <pt x="-470" y="692" on="0"/>
        <pt x="-420" y="712" on="1"/>
        <pt x="-337" y="746" on="1"/>
        <pt x="-303" y="760" on="0"/>
        <pt x="-270" y="760" on="1"/>
        <pt x="-237" y="760" on="0"/>
        <pt x="-204" y="746" on="1"/>
        <pt x="-121" y="713" on="1"/>
        <pt x="-70" y="692" on="0"/>
        <pt x="-70" y="645" on="1"/>
        <pt x="-70" y="625" on="1"/>
        <pt x="-120" y="550" on="1"/>
        <pt x="-241" y="550" on="1"/>
        <pt x="-177" y="646" on="1"/>
        <pt x="-272" y="731" on="1"/>
        <pt x="-359" y="648" on="1"/>
        <pt x="-325" y="613" on="1"/>
        <pt x="-370" y="550" on="1"/>
        <pt x="-470" y="600" on="1"/>
      </contour>
    </TTGlyph>
    <TTGlyph name="u0EB7" xMin="-470" yMin="550" xMax="22" yMax="760">
      <contour>
        <pt x="-220" y="648" on="1"/>
        <pt x="-267" y="596" on="1"/>
        <pt x="-322" y="645" on="1"/>
        <pt x="-275" y="698" on="1"/>
      </contour>
      <contour>
        <pt x="-201" y="610" on="1"/>
        <pt x="-177" y="646" on="1"/>
        <pt x="-272" y="731" on="1"/>
        <pt x="-359" y="648" on="1"/>
        <pt x="-325" y="613" on="1"/>
        <pt x="-370" y="550" on="1"/>
        <pt x="-470" y="600" on="1"/>
        <pt x="-470" y="645" on="1"/>
        <pt x="-470" y="692" on="0"/>
        <pt x="-420" y="712" on="1"/>
        <pt x="-337" y="746" on="1"/>
        <pt x="-303" y="760" on="0"/>
        <pt x="-270" y="760" on="1"/>
        <pt x="-237" y="760" on="0"/>
        <pt x="-204" y="746" on="1"/>
        <pt x="-121" y="713" on="1"/>
        <pt x="-70" y="692" on="0"/>
        <pt x="-70" y="645" on="1"/>
        <pt x="-70" y="625" on="1"/>
        <pt x="-80" y="610" on="1"/>
        <pt x="22" y="610" on="1"/>
        <pt x="-18" y="550" on="1"/>
        <pt x="-266" y="550" on="1"/>
        <pt x="-226" y="610" on="1"/>
      </contour>
    </TTGlyph>
    <TTGlyph name="u0EB8" xMin="-230" yMin="-280" xMax="-70" yMax="-30">
      <contour>
        <pt x="-70" y="-230" on="1"/>
        <pt x="-170" y="-280" on="1"/>
        <pt x="-170" y="-159" on="1"/>
        <pt x="-230" y="-115" on="1"/>
        <pt x="-170" y="-30" on="1"/>
        <pt x="-70" y="-80" on="1"/>
      </contour>
    </TTGlyph>
    <TTGlyph name="u0EB9" xMin="-369" yMin="-280" xMax="-70" yMax="-30">
      <contour>
        <pt x="-309" y="-280" on="1"/>
        <pt x="-309" y="-159" on="1"/>
        <pt x="-369" y="-115" on="1"/>
        <pt x="-309" y="-30" on="1"/>
        <pt x="-229" y="-80" on="1"/>
        <pt x="-229" y="-200" on="1"/>
        <pt x="-159" y="-200" on="1"/>
        <pt x="-159" y="-96" on="1"/>
        <pt x="-70" y="-41" on="1"/>
        <pt x="-70" y="-213" on="1"/>
        <pt x="-156" y="-280" on="1"/>
      </contour>
    </TTGlyph>
    <TTGlyph name="u0EBB" xMin="-470" yMin="550" xMax="-70" yMax="760">
      <contour>
        <pt x="-470" y="645" on="1"/>
        <pt x="-470" y="692" on="0"/>
        <pt x="-420" y="712" on="1"/>
        <pt x="-337" y="746" on="1"/>
        <pt x="-303" y="760" on="0"/>
        <pt x="-270" y="760" on="1"/>
        <pt x="-237" y="760" on="0"/>
        <pt x="-204" y="746" on="1"/>
        <pt x="-121" y="713" on="1"/>
        <pt x="-70" y="692" on="0"/>
        <pt x="-70" y="645" on="1"/>
        <pt x="-70" y="600" on="1"/>
        <pt x="-170" y="550" on="1"/>
        <pt x="-170" y="625" on="1"/>
        <pt x="-337" y="692" on="1"/>
        <pt x="-370" y="679" on="1"/>
        <pt x="-310" y="635" on="1"/>
        <pt x="-370" y="550" on="1"/>
        <pt x="-470" y="600" on="1"/>
      </contour>
    </TTGlyph>
    <TTGlyph name="u0EBC" xMin="-575" yMin="-272" xMax="-45" yMax="-60">
      <contour>
        <pt x="-45" y="-60" on="1"/>
        <pt x="-131" y="-272" on="1"/>
        <pt x="-268" y="-272" on="1"/>
        <pt x="-335" y="-130" on="1"/>
        <pt x="-399" y="-130" on="1"/>
        <pt x="-363" y="-166" on="1"/>
        <pt x="-469" y="-272" on="1"/>
        <pt x="-575" y="-166" on="1"/>
        <pt x="-469" y="-60" on="1"/>
        <pt x="-257" y="-60" on="1"/>
        <pt x="-191" y="-208" on="1"/>
        <pt x="-131" y="-60" on="1"/>
      </contour>
    </TTGlyph>
    <TTGlyph name="u0EBD" xMin="-180" yMin="-270" xMax="290" yMax="520">
      <contour>
        <pt x="170" y="-165" on="1"/>
        <pt x="170" y="-212" on="0"/>
        <pt x="53" y="-270" on="0"/>
        <pt x="20" y="-270" on="1"/>
        <pt x="-13" y="-270" on="0"/>
        <pt x="-46" y="-256" on="1"/>
        <pt x="-129" y="-223" on="1"/>
        <pt x="-180" y="-202" on="0"/>
        <pt x="-180" y="-155" on="1"/>
        <pt x="-180" y="-71" on="1"/>
        <pt x="-80" y="-21" on="1"/>
        <pt x="-30" y="-96" on="1"/>
        <pt x="-80" y="-130" on="1"/>
        <pt x="-80" y="-135" on="1"/>
        <pt x="70" y="-195" on="1"/>
        <pt x="70" y="391" on="1"/>
        <pt x="10" y="435" on="1"/>
        <pt x="70" y="520" on="1"/>
        <pt x="170" y="470" on="1"/>
        <pt x="170" y="468" on="1"/>
        <pt x="290" y="468" on="1"/>
        <pt x="240" y="392" on="1"/>
        <pt x="170" y="392" on="1"/>
      </contour>
    </TTGlyph>
    <TTGlyph name="u0EC0" xMin="70" yMin="0" xMax="230" yMax="520">
      <contour>
        <pt x="170" y="129" on="1"/>
        <pt x="230" y="85" on="1"/>
        <pt x="170" y="0" on="1"/>
        <pt x="70" y="50" on="1"/>
        <pt x="70" y="470" on="1"/>
        <pt x="170" y="520" on="1"/>
      </contour>
    </TTGlyph>
    <TTGlyph name="u0EC1" xMin="70" yMin="0" xMax="450" yMax="520">
      <contour>
        <pt x="290" y="470" on="1"/>
        <pt x="390" y="520" on="1"/>
        <pt x="390" y="129" on="1"/>
        <pt x="450" y="85" on="1"/>
        <pt x="390" y="0" on="1"/>
        <pt x="290" y="50" on="1"/>
      </contour>
      <contour>
        <pt x="70" y="470" on="1"/>
        <pt x="170" y="520" on="1"/>
        <pt x="170" y="129" on="1"/>
        <pt x="230" y="85" on="1"/>
        <pt x="170" y="0" on="1"/>
        <pt x="70" y="50" on="1"/>
      </contour>
    </TTGlyph>
    <TTGlyph name="u0EC2" xMin="-43" yMin="0" xMax="299" yMax="794">
      <contour>
        <pt x="170" y="129" on="1"/>
        <pt x="230" y="85" on="1"/>
        <pt x="170" y="0" on="1"/>
        <pt x="70" y="50" on="1"/>
        <pt x="70" y="555" on="1"/>
        <pt x="-43" y="628" on="1"/>
        <pt x="-43" y="710" on="1"/>
        <pt x="-43" y="794" on="0"/>
        <pt x="44" y="794" on="1"/>
        <pt x="89" y="794" on="0"/>
        <pt x="154" y="753" on="1"/>
        <pt x="255" y="684" on="1"/>
        <pt x="299" y="684" on="1"/>
        <pt x="259" y="614" on="1"/>
        <pt x="181" y="614" on="1"/>
        <pt x="113" y="659" on="1"/>
        <pt x="114" y="659" on="1"/>
        <pt x="57" y="696" on="1"/>
        <pt x="57" y="632" on="1"/>
        <pt x="236" y="509" on="1"/>
        <pt x="206" y="466" on="1"/>
        <pt x="170" y="489" on="1"/>
      </contour>
    </TTGlyph>
    <TTGlyph name="u0EC3" xMin="-59" yMin="0" xMax="270" yMax="773">
      <contour>
        <pt x="170" y="129" on="1"/>
        <pt x="230" y="85" on="1"/>
        <pt x="170" y="0" on="1"/>
        <pt x="70" y="50" on="1"/>
        <pt x="70" y="473" on="1"/>
        <pt x="170" y="534" on="1"/>
        <pt x="170" y="653" on="1"/>
        <pt x="41" y="705" on="1"/>
        <pt x="41" y="561" on="1"/>
        <pt x="-59" y="521" on="1"/>
        <pt x="-59" y="658" on="1"/>
        <pt x="-59" y="705" on="0"/>
        <pt x="8" y="739" on="1"/>
        <pt x="75" y="773" on="0"/>
        <pt x="108" y="773" on="1"/>
        <pt x="141" y="773" on="0"/>
        <pt x="174" y="759" on="1"/>
        <pt x="219" y="741" on="1"/>
        <pt x="270" y="720" on="0"/>
        <pt x="270" y="673" on="1"/>
        <pt x="270" y="536" on="1"/>
        <pt x="170" y="475" on="1"/>
      </contour>
    </TTGlyph>
    <TTGlyph name="u0EC4" xMin="9" yMin="0" xMax="270" yMax="817">
      <contour>
        <pt x="170" y="129" on="1"/>
        <pt x="230" y="85" on="1"/>
        <pt x="170" y="0" on="1"/>
        <pt x="70" y="50" on="1"/>
        <pt x="70" y="484" on="1"/>
        <pt x="190" y="575" on="1"/>
        <pt x="129" y="604" on="1"/>
        <pt x="9" y="522" on="1"/>
        <pt x="9" y="767" on="1"/>
        <pt x="109" y="817" on="1"/>
        <pt x="109" y="644" on="1"/>
        <pt x="166" y="688" on="1"/>
        <pt x="270" y="638" on="1"/>
        <pt x="270" y="556" on="1"/>
        <pt x="170" y="485" on="1"/>
      </contour>
    </TTGlyph>
    <TTGlyph name="u0EC6" xMin="70" yMin="-196" xMax="470" yMax="520">
      <contour>
        <pt x="170" y="379" on="1"/>
        <pt x="230" y="335" on="1"/>
        <pt x="170" y="250" on="1"/>
        <pt x="70" y="300" on="1"/>
        <pt x="70" y="405" on="1"/>
        <pt x="70" y="452" on="0"/>
        <pt x="99" y="472" on="1"/>
        <pt x="148" y="506" on="1"/>
        <pt x="168" y="520" on="0"/>
        <pt x="187" y="520" on="1"/>
        <pt x="206" y="520" on="0"/>
        <pt x="226" y="506" on="1"/>
        <pt x="270" y="476" on="1"/>
        <pt x="314" y="506" on="1"/>
        <pt x="334" y="520" on="0"/>
        <pt x="353" y="520" on="1"/>
        <pt x="372" y="520" on="0"/>
        <pt x="392" y="506" on="1"/>
        <pt x="440" y="473" on="1"/>
        <pt x="470" y="452" on="0"/>
        <pt x="470" y="405" on="1"/>
        <pt x="470" y="-61" on="1"/>
        <pt x="470" y="-128" on="0"/>
        <pt x="420" y="-148" on="1"/>
        <pt x="337" y="-182" on="1"/>
        <pt x="303" y="-196" on="0"/>
        <pt x="270" y="-196" on="1"/>
        <pt x="237" y="-196" on="0"/>
        <pt x="204" y="-182" on="1"/>
        <pt x="121" y="-149" on="1"/>
        <pt x="170" y="-61" on="1"/>
        <pt x="254" y="-94" on="1"/>
        <pt x="337" y="-128" on="1"/>
        <pt x="370" y="-115" on="1"/>
        <pt x="370" y="400" on="1"/>
        <pt x="314" y="439" on="1"/>
        <pt x="246" y="371" on="1"/>
        <pt x="170" y="424" on="1"/>
      </contour>
    </TTGlyph>
    <TTGlyph name="u0EC8" xMin="-258" yMin="798" xMax="-178" yMax="983">
      <contour>
        <pt x="-178" y="983" on="1"/>
        <pt x="-178" y="838" on="1"/>
        <pt x="-258" y="798" on="1"/>
        <pt x="-258" y="943" on="1"/>
      </contour>
    </TTGlyph>
    <TTGlyph name="u0EC8.b" xMin="-258" yMin="580" xMax="-178" yMax="805">
      <contour>
        <pt x="-178" y="805" on="1"/>
        <pt x="-178" y="620" on="1"/>
        <pt x="-258" y="580" on="1"/>
        <pt x="-258" y="765" on="1"/>
      </contour>
    </TTGlyph>
    <TTGlyph name="u0EC9" xMin="-346" yMin="768" xMax="4" yMax="984">
      <contour>
        <pt x="-267" y="890" on="1"/>
        <pt x="-320" y="908" on="1"/>
        <pt x="-283" y="984" on="1"/>
        <pt x="-188" y="952" on="1"/>
        <pt x="-188" y="887" on="1"/>
        <pt x="-222" y="852" on="1"/>
        <pt x="-96" y="903" on="1"/>
        <pt x="-96" y="978" on="1"/>
        <pt x="4" y="928" on="1"/>
        <pt x="4" y="883" on="1"/>
        <pt x="4" y="836" on="0"/>
        <pt x="-47" y="815" on="1"/>
        <pt x="-130" y="782" on="1"/>
        <pt x="-163" y="768" on="0"/>
        <pt x="-196" y="768" on="1"/>
        <pt x="-229" y="768" on="0"/>
        <pt x="-263" y="782" on="1"/>
        <pt x="-346" y="816" on="1"/>
      </contour>
    </TTGlyph>
    <TTGlyph name="u0EC9.b" xMin="-470" yMin="550" xMax="-70" yMax="824">
      <contour>
        <pt x="-375" y="635" on="1"/>
        <pt x="-337" y="618" on="1"/>
        <pt x="-170" y="685" on="1"/>
        <pt x="-170" y="760" on="1"/>
        <pt x="-70" y="710" on="1"/>
        <pt x="-70" y="665" on="1"/>
        <pt x="-70" y="618" on="0"/>
        <pt x="-121" y="597" on="1"/>
        <pt x="-204" y="564" on="1"/>
        <pt x="-237" y="550" on="0"/>
        <pt x="-270" y="550" on="1"/>
        <pt x="-303" y="550" on="0"/>
        <pt x="-337" y="564" on="1"/>
        <pt x="-420" y="598" on="1"/>
        <pt x="-470" y="618" on="0"/>
        <pt x="-470" y="665" on="1"/>
        <pt x="-404" y="695" on="1"/>
        <pt x="-464" y="739" on="1"/>
        <pt x="-404" y="824" on="1"/>
        <pt x="-304" y="774" on="1"/>
        <pt x="-304" y="689" on="1"/>
      </contour>
    </TTGlyph>
    <TTGlyph name="u0ECA" xMin="-349" yMin="809" xMax="83" yMax="984">
      <contour>
        <pt x="-27" y="912" on="1"/>
        <pt x="27" y="937" on="1"/>
        <pt x="27" y="984" on="1"/>
        <pt x="83" y="964" on="1"/>
        <pt x="83" y="881" on="1"/>
        <pt x="-91" y="809" on="1"/>
        <pt x="-132" y="859" on="1"/>
        <pt x="-85" y="909" on="1"/>
        <pt x="-105" y="933" on="1"/>
        <pt x="-179" y="862" on="1"/>
        <pt x="-253" y="933" on="1"/>
        <pt x="-273" y="909" on="1"/>
        <pt x="-226" y="859" on="1"/>
        <pt x="-267" y="809" on="1"/>
        <pt x="-349" y="892" on="1"/>
        <pt x="-264" y="984" on="1"/>
        <pt x="-228" y="984" on="1"/>
        <pt x="-179" y="940" on="1"/>
        <pt x="-130" y="984" on="1"/>
        <pt x="-94" y="984" on="1"/>
      </contour>
    </TTGlyph>
    <TTGlyph name="u0ECA.b" xMin="-440" yMin="550" xMax="67" yMax="776">
      <contour>
        <pt x="-177" y="550" on="1"/>
        <pt x="-177" y="608" on="1"/>
        <pt x="-140" y="656" on="1"/>
        <pt x="-196" y="695" on="1"/>
        <pt x="-264" y="627" on="1"/>
        <pt x="-340" y="680" on="1"/>
        <pt x="-368" y="653" on="1"/>
        <pt x="-310" y="601" on="1"/>
        <pt x="-354" y="550" on="1"/>
        <pt x="-440" y="600" on="1"/>
        <pt x="-440" y="661" on="1"/>
        <pt x="-440" y="708" on="0"/>
        <pt x="-411" y="728" on="1"/>
        <pt x="-362" y="762" on="1"/>
        <pt x="-342" y="776" on="0"/>
        <pt x="-323" y="776" on="1"/>
        <pt x="-304" y="776" on="0"/>
        <pt x="-284" y="762" on="1"/>
        <pt x="-240" y="732" on="1"/>
        <pt x="-196" y="762" on="1"/>
        <pt x="-176" y="776" on="0"/>
        <pt x="-157" y="776" on="1"/>
        <pt x="-138" y="776" on="0"/>
        <pt x="-118" y="762" on="1"/>
        <pt x="-70" y="729" on="1"/>
        <pt x="-40" y="708" on="0"/>
        <pt x="-40" y="661" on="1"/>
        <pt x="-58" y="634" on="1"/>
        <pt x="2" y="670" on="0"/>
        <pt x="2" y="694" on="1"/>
        <pt x="2" y="723" on="1"/>
        <pt x="67" y="698" on="1"/>
        <pt x="67" y="595" on="0"/>
        <pt x="-64" y="550" on="1"/>
      </contour>
    </TTGlyph>
    <TTGlyph name="u0ECB" xMin="-329" yMin="794" xMax="-100" yMax="984">
      <contour>
        <pt x="-258" y="856" on="1"/>
        <pt x="-329" y="856" on="1"/>
        <pt x="-309" y="922" on="1"/>
        <pt x="-258" y="922" on="1"/>
        <pt x="-258" y="964" on="1"/>
        <pt x="-172" y="984" on="1"/>
        <pt x="-172" y="922" on="1"/>
        <pt x="-100" y="922" on="1"/>
        <pt x="-120" y="856" on="1"/>
        <pt x="-172" y="856" on="1"/>
        <pt x="-172" y="814" on="1"/>
        <pt x="-258" y="794" on="1"/>
      </contour>
    </TTGlyph>
    <TTGlyph name="u0ECB.b" xMin="-356" yMin="530" xMax="-61" yMax="855">
      <contour>
        <pt x="-257" y="660" on="1"/>
        <pt x="-356" y="660" on="1"/>
        <pt x="-336" y="726" on="1"/>
        <pt x="-257" y="726" on="1"/>
        <pt x="-257" y="805" on="1"/>
        <pt x="-161" y="855" on="1"/>
        <pt x="-161" y="726" on="1"/>
        <pt x="-61" y="726" on="1"/>
        <pt x="-81" y="660" on="1"/>
        <pt x="-161" y="660" on="1"/>
        <pt x="-161" y="580" on="1"/>
        <pt x="-257" y="530" on="1"/>
      </contour>
    </TTGlyph>
    <TTGlyph name="u0ECC" xMin="-285" yMin="790" xMax="123" yMax="984">
      <contour>
        <pt x="123" y="984" on="1"/>
        <pt x="75" y="920" on="1"/>
        <pt x="-109" y="920" on="1"/>
        <pt x="-73" y="887" on="1"/>
        <pt x="-179" y="790" on="1"/>
        <pt x="-285" y="887" on="1"/>
        <pt x="-179" y="984" on="1"/>
      </contour>
    </TTGlyph>
    <TTGlyph name="u0ECC.b" xMin="-330" yMin="580" xMax="127" yMax="876">
      <contour>
        <pt x="30" y="726" on="0"/>
        <pt x="-28" y="726" on="1"/>
        <pt x="-154" y="726" on="1"/>
        <pt x="-118" y="689" on="1"/>
        <pt x="-224" y="580" on="1"/>
        <pt x="-330" y="689" on="1"/>
        <pt x="-224" y="798" on="1"/>
        <pt x="-28" y="798" on="1"/>
        <pt x="24" y="876" on="1"/>
        <pt x="127" y="876" on="1"/>
        <pt x="54" y="764" on="1"/>
      </contour>
    </TTGlyph>
    <TTGlyph name="u0ECD" xMin="-331" yMin="600" xMax="-119" yMax="812">
      <contour>
        <pt x="-225" y="812" on="1"/>
        <pt x="-119" y="706" on="1"/>
        <pt x="-225" y="600" on="1"/>
        <pt x="-331" y="706" on="1"/>
      </contour>
    </TTGlyph>
    <TTGlyph name="u0ED0" xMin="70" yMin="0" xMax="470" yMax="520">
      <contour>
        <pt x="170" y="135" on="1"/>
        <pt x="337" y="68" on="1"/>
        <pt x="370" y="81" on="1"/>
        <pt x="370" y="385" on="1"/>
        <pt x="203" y="452" on="1"/>
        <pt x="170" y="439" on="1"/>
      </contour>
      <contour>
        <pt x="470" y="115" on="1"/>
        <pt x="470" y="68" on="0"/>
        <pt x="420" y="48" on="1"/>
        <pt x="337" y="14" on="1"/>
        <pt x="303" y="0" on="0"/>
        <pt x="270" y="0" on="1"/>
        <pt x="237" y="0" on="0"/>
        <pt x="204" y="14" on="1"/>
        <pt x="121" y="47" on="1"/>
        <pt x="70" y="68" on="0"/>
        <pt x="70" y="115" on="1"/>
        <pt x="70" y="405" on="1"/>
        <pt x="70" y="452" on="0"/>
        <pt x="120" y="472" on="1"/>
        <pt x="203" y="506" on="1"/>
        <pt x="237" y="520" on="0"/>
        <pt x="270" y="520" on="1"/>
        <pt x="303" y="520" on="0"/>
        <pt x="336" y="506" on="1"/>
        <pt x="419" y="473" on="1"/>
        <pt x="470" y="452" on="0"/>
        <pt x="470" y="405" on="1"/>
      </contour>
    </TTGlyph>
    <TTGlyph name="u0ED1" xMin="70" yMin="0" xMax="470" yMax="520">
      <contour>
        <pt x="70" y="405" on="1"/>
        <pt x="70" y="452" on="0"/>
        <pt x="120" y="472" on="1"/>
        <pt x="203" y="506" on="1"/>
        <pt x="237" y="520" on="0"/>
        <pt x="270" y="520" on="1"/>
        <pt x="303" y="520" on="0"/>
        <pt x="336" y="506" on="1"/>
        <pt x="419" y="473" on="1"/>
        <pt x="470" y="452" on="0"/>
        <pt x="470" y="405" on="1"/>
        <pt x="470" y="115" on="1"/>
        <pt x="470" y="68" on="0"/>
        <pt x="420" y="48" on="1"/>
        <pt x="337" y="14" on="1"/>
        <pt x="303" y="0" on="0"/>
        <pt x="270" y="0" on="1"/>
        <pt x="237" y="0" on="0"/>
        <pt x="204" y="14" on="1"/>
        <pt x="121" y="47" on="1"/>
        <pt x="170" y="135" on="1"/>
        <pt x="337" y="68" on="1"/>
        <pt x="370" y="81" on="1"/>
        <pt x="370" y="385" on="1"/>
        <pt x="203" y="452" on="1"/>
        <pt x="170" y="439" on="1"/>
        <pt x="170" y="349" on="1"/>
        <pt x="230" y="305" on="1"/>
        <pt x="170" y="220" on="1"/>
        <pt x="70" y="270" on="1"/>
      </contour>
    </TTGlyph>
    <TTGlyph name="u0ED2" xMin="70" yMin="0" xMax="470" yMax="730">
      <contour>
        <pt x="70" y="395" on="0"/>
        <pt x="237" y="506" on="1"/>
        <pt x="370" y="594" on="0"/>
        <pt x="370" y="640" on="1"/>
        <pt x="370" y="680" on="1"/>
        <pt x="470" y="730" on="1"/>
        <pt x="470" y="640" on="1"/>
        <pt x="470" y="541" on="0"/>
        <pt x="293" y="423" on="1"/>
        <pt x="170" y="342" on="0"/>
        <pt x="170" y="300" on="1"/>
        <pt x="170" y="135" on="1"/>
        <pt x="337" y="68" on="1"/>
        <pt x="370" y="81" on="1"/>
        <pt x="370" y="121" on="1"/>
        <pt x="310" y="165" on="1"/>
        <pt x="370" y="250" on="1"/>
        <pt x="470" y="200" on="1"/>
        <pt x="470" y="115" on="1"/>
        <pt x="470" y="68" on="0"/>
        <pt x="420" y="48" on="1"/>
        <pt x="337" y="14" on="1"/>
        <pt x="303" y="0" on="0"/>
        <pt x="270" y="0" on="1"/>
        <pt x="237" y="0" on="0"/>
        <pt x="204" y="14" on="1"/>
        <pt x="121" y="47" on="1"/>
        <pt x="70" y="68" on="0"/>
        <pt x="70" y="115" on="1"/>
        <pt x="70" y="300" on="1"/>
      </contour>
    </TTGlyph>
    <TTGlyph name="u0ED3" xMin="10" yMin="0" xMax="470" yMax="791">
      <contour>
        <pt x="470" y="115" on="1"/>
        <pt x="470" y="68" on="0"/>
        <pt x="420" y="48" on="1"/>
        <pt x="337" y="14" on="1"/>
        <pt x="303" y="0" on="0"/>
        <pt x="270" y="0" on="1"/>
        <pt x="237" y="0" on="0"/>
        <pt x="204" y="14" on="1"/>
        <pt x="137" y="41" on="1"/>
        <pt x="70" y="0" on="1"/>
        <pt x="10" y="82" on="1"/>
        <pt x="70" y="132" on="1"/>
        <pt x="70" y="470" on="1"/>
        <pt x="170" y="520" on="1"/>
        <pt x="170" y="135" on="1"/>
        <pt x="337" y="68" on="1"/>
        <pt x="370" y="81" on="1"/>
        <pt x="370" y="426" on="1"/>
        <pt x="70" y="623" on="1"/>
        <pt x="70" y="705" on="1"/>
        <pt x="70" y="791" on="0"/>
        <pt x="162" y="791" on="1"/>
        <pt x="207" y="791" on="1"/>
        <pt x="470" y="610" on="1"/>
        <pt x="367" y="559" on="1"/>
        <pt x="170" y="691" on="1"/>
        <pt x="170" y="627" on="1"/>
        <pt x="470" y="431" on="1"/>
      </contour>
    </TTGlyph>
    <TTGlyph name="u0ED4" xMin="70" yMin="0" xMax="490" yMax="730">
      <contour>
        <pt x="70" y="300" on="1"/>
        <pt x="70" y="395" on="0"/>
        <pt x="237" y="506" on="1"/>
        <pt x="370" y="594" on="0"/>
        <pt x="370" y="640" on="1"/>
        <pt x="370" y="680" on="1"/>
        <pt x="470" y="730" on="1"/>
        <pt x="470" y="640" on="1"/>
        <pt x="470" y="541" on="0"/>
        <pt x="293" y="423" on="1"/>
        <pt x="170" y="342" on="0"/>
        <pt x="170" y="300" on="1"/>
        <pt x="170" y="135" on="1"/>
        <pt x="337" y="68" on="1"/>
        <pt x="330" y="81" on="1"/>
        <pt x="330" y="320" on="1"/>
        <pt x="430" y="370" on="1"/>
        <pt x="490" y="285" on="1"/>
        <pt x="430" y="241" on="1"/>
        <pt x="430" y="129" on="1"/>
        <pt x="490" y="85" on="1"/>
        <pt x="430" y="0" on="1"/>
        <pt x="373" y="29" on="1"/>
        <pt x="337" y="14" on="1"/>
        <pt x="303" y="0" on="0"/>
        <pt x="270" y="0" on="1"/>
        <pt x="237" y="0" on="0"/>
        <pt x="204" y="14" on="1"/>
        <pt x="121" y="47" on="1"/>
        <pt x="70" y="68" on="0"/>
        <pt x="70" y="115" on="1"/>
      </contour>
    </TTGlyph>
    <TTGlyph name="u0ED5" xMin="70" yMin="0" xMax="490" yMax="730">
      <contour>
        <pt x="70" y="300" on="1"/>
        <pt x="70" y="423" on="0"/>
        <pt x="189" y="487" on="1"/>
        <pt x="132" y="544" on="1"/>
        <pt x="238" y="650" on="1"/>
        <pt x="330" y="558" on="1"/>
        <pt x="370" y="592" on="0"/>
        <pt x="370" y="640" on="1"/>
        <pt x="370" y="680" on="1"/>
        <pt x="470" y="730" on="1"/>
        <pt x="470" y="640" on="1"/>
        <pt x="470" y="486" on="0"/>
        <pt x="281" y="419" on="1"/>
        <pt x="170" y="380" on="0"/>
        <pt x="170" y="300" on="1"/>
        <pt x="170" y="135" on="1"/>
        <pt x="337" y="68" on="1"/>
        <pt x="330" y="81" on="1"/>
        <pt x="330" y="320" on="1"/>
        <pt x="430" y="370" on="1"/>
        <pt x="490" y="285" on="1"/>
        <pt x="430" y="241" on="1"/>
        <pt x="430" y="129" on="1"/>
        <pt x="490" y="85" on="1"/>
        <pt x="430" y="0" on="1"/>
        <pt x="373" y="29" on="1"/>
        <pt x="337" y="14" on="1"/>
        <pt x="303" y="0" on="0"/>
        <pt x="270" y="0" on="1"/>
        <pt x="237" y="0" on="0"/>
        <pt x="204" y="14" on="1"/>
        <pt x="121" y="47" on="1"/>
        <pt x="70" y="68" on="0"/>
        <pt x="70" y="115" on="1"/>
      </contour>
    </TTGlyph>
    <TTGlyph name="u0ED6" xMin="70" yMin="0" xMax="470" yMax="766">
      <contour>
        <pt x="470" y="115" on="1"/>
        <pt x="470" y="68" on="0"/>
        <pt x="440" y="47" on="1"/>
        <pt x="392" y="14" on="1"/>
        <pt x="372" y="0" on="0"/>
        <pt x="353" y="0" on="1"/>
        <pt x="334" y="0" on="0"/>
        <pt x="314" y="14" on="1"/>
        <pt x="270" y="44" on="1"/>
        <pt x="226" y="14" on="1"/>
        <pt x="206" y="0" on="0"/>
        <pt x="187" y="0" on="1"/>
        <pt x="168" y="0" on="0"/>
        <pt x="148" y="14" on="1"/>
        <pt x="99" y="48" on="1"/>
        <pt x="70" y="68" on="0"/>
        <pt x="70" y="115" on="1"/>
        <pt x="70" y="470" on="1"/>
        <pt x="170" y="520" on="1"/>
        <pt x="230" y="435" on="1"/>
        <pt x="170" y="391" on="1"/>
        <pt x="170" y="96" on="1"/>
        <pt x="246" y="149" on="1"/>
        <pt x="314" y="81" on="1"/>
        <pt x="370" y="120" on="1"/>
        <pt x="370" y="495" on="1"/>
        <pt x="205" y="603" on="1"/>
        <pt x="205" y="685" on="1"/>
        <pt x="205" y="766" on="0"/>
        <pt x="331" y="766" on="1"/>
        <pt x="470" y="681" on="1"/>
        <pt x="470" y="560" on="1"/>
        <pt x="305" y="671" on="1"/>
        <pt x="305" y="607" on="1"/>
        <pt x="470" y="499" on="1"/>
      </contour>
    </TTGlyph>
    <TTGlyph name="u0ED7" xMin="10" yMin="-150" xMax="470" yMax="520">
      <contour>
        <pt x="370" y="385" on="1"/>
        <pt x="203" y="452" on="1"/>
        <pt x="170" y="439" on="1"/>
        <pt x="170" y="50" on="1"/>
        <pt x="70" y="0" on="1"/>
        <pt x="10" y="85" on="1"/>
        <pt x="70" y="129" on="1"/>
        <pt x="70" y="388" on="1"/>
        <pt x="10" y="438" on="1"/>
        <pt x="70" y="520" on="1"/>
        <pt x="137" y="479" on="1"/>
        <pt x="203" y="506" on="1"/>
        <pt x="237" y="520" on="0"/>
        <pt x="270" y="520" on="1"/>
        <pt x="303" y="520" on="0"/>
        <pt x="336" y="506" on="1"/>
        <pt x="419" y="473" on="1"/>
        <pt x="470" y="452" on="0"/>
        <pt x="470" y="385" on="1"/>
        <pt x="470" y="-100" on="1"/>
        <pt x="370" y="-150" on="1"/>
      </contour>
    </TTGlyph>
    <TTGlyph name="u0ED8" xMin="70" yMin="-205" xMax="470" yMax="520">
      <contour>
        <pt x="370" y="96" on="1"/>
        <pt x="170" y="-35" on="1"/>
        <pt x="170" y="-98" on="1"/>
        <pt x="370" y="32" on="1"/>
      </contour>
      <contour>
        <pt x="267" y="-108" on="1"/>
        <pt x="207" y="-149" on="1"/>
        <pt x="162" y="-149" on="1"/>
        <pt x="106" y="-149" on="0"/>
        <pt x="70" y="-113" on="1"/>
        <pt x="70" y="-31" on="1"/>
        <pt x="370" y="166" on="1"/>
        <pt x="370" y="400" on="1"/>
        <pt x="314" y="439" on="1"/>
        <pt x="246" y="371" on="1"/>
        <pt x="170" y="424" on="1"/>
        <pt x="170" y="209" on="1"/>
        <pt x="230" y="165" on="1"/>
        <pt x="170" y="80" on="1"/>
        <pt x="70" y="130" on="1"/>
        <pt x="70" y="405" on="1"/>
        <pt x="70" y="452" on="0"/>
        <pt x="99" y="472" on="1"/>
        <pt x="148" y="506" on="1"/>
        <pt x="168" y="520" on="0"/>
        <pt x="187" y="520" on="1"/>
        <pt x="206" y="520" on="0"/>
        <pt x="226" y="506" on="1"/>
        <pt x="270" y="476" on="1"/>
        <pt x="314" y="506" on="1"/>
        <pt x="334" y="520" on="0"/>
        <pt x="353" y="520" on="1"/>
        <pt x="372" y="520" on="0"/>
        <pt x="392" y="506" on="1"/>
        <pt x="440" y="473" on="1"/>
        <pt x="470" y="452" on="0"/>
        <pt x="470" y="405" on="1"/>
        <pt x="470" y="32" on="1"/>
        <pt x="392" y="-21" on="1"/>
        <pt x="470" y="-99" on="1"/>
        <pt x="364" y="-205" on="1"/>
      </contour>
    </TTGlyph>
    <TTGlyph name="u0ED9" xMin="70" yMin="0" xMax="704" yMax="520">
      <contour>
        <pt x="170" y="129" on="1"/>
        <pt x="230" y="85" on="1"/>
        <pt x="170" y="0" on="1"/>
        <pt x="70" y="50" on="1"/>
        <pt x="70" y="405" on="1"/>
        <pt x="70" y="452" on="0"/>
        <pt x="137" y="486" on="1"/>
        <pt x="204" y="520" on="0"/>
        <pt x="237" y="520" on="1"/>
        <pt x="270" y="520" on="0"/>
        <pt x="303" y="506" on="1"/>
        <pt x="386" y="473" on="1"/>
        <pt x="437" y="452" on="0"/>
        <pt x="437" y="405" on="1"/>
        <pt x="437" y="135" on="1"/>
        <pt x="604" y="68" on="1"/>
        <pt x="604" y="470" on="1"/>
        <pt x="704" y="520" on="1"/>
        <pt x="704" y="115" on="1"/>
        <pt x="704" y="68" on="0"/>
        <pt x="637" y="34" on="1"/>
        <pt x="570" y="0" on="0"/>
        <pt x="537" y="0" on="1"/>
        <pt x="504" y="0" on="0"/>
        <pt x="471" y="14" on="1"/>
        <pt x="388" y="47" on="1"/>
        <pt x="337" y="68" on="0"/>
        <pt x="337" y="115" on="1"/>
        <pt x="337" y="385" on="1"/>
        <pt x="170" y="452" on="1"/>
      </contour>
    </TTGlyph>
    <TTGlyph name="u0EDC" xMin="70" yMin="0" xMax="921" yMax="520">
      <contour>
        <pt x="639" y="41" on="1"/>
        <pt x="574" y="0" on="1"/>
        <pt x="574" y="385" on="1"/>
        <pt x="427" y="452" on="1"/>
        <pt x="427" y="115" on="1"/>
        <pt x="427" y="68" on="0"/>
        <pt x="360" y="34" on="1"/>
        <pt x="293" y="0" on="0"/>
        <pt x="270" y="0" on="1"/>
        <pt x="237" y="0" on="0"/>
        <pt x="204" y="14" on="1"/>
        <pt x="121" y="47" on="1"/>
        <pt x="70" y="68" on="0"/>
        <pt x="70" y="115" on="1"/>
        <pt x="70" y="227" on="1"/>
        <pt x="70" y="270" on="0"/>
        <pt x="130" y="332" on="0"/>
        <pt x="130" y="348" on="1"/>
        <pt x="130" y="391" on="1"/>
        <pt x="70" y="435" on="1"/>
        <pt x="130" y="520" on="1"/>
        <pt x="230" y="470" on="1"/>
        <pt x="230" y="348" on="1"/>
        <pt x="230" y="305" on="0"/>
        <pt x="170" y="243" on="0"/>
        <pt x="170" y="227" on="1"/>
        <pt x="170" y="135" on="1"/>
        <pt x="327" y="68" on="1"/>
        <pt x="327" y="520" on="1"/>
        <pt x="388" y="483" on="1"/>
        <pt x="391" y="485" on="0"/>
        <pt x="394" y="486" on="1"/>
        <pt x="461" y="520" on="0"/>
        <pt x="484" y="520" on="1"/>
        <pt x="507" y="520" on="0"/>
        <pt x="540" y="506" on="1"/>
        <pt x="623" y="473" on="1"/>
        <pt x="674" y="452" on="0"/>
        <pt x="674" y="405" on="1"/>
        <pt x="674" y="135" on="1"/>
        <pt x="821" y="68" on="1"/>
        <pt x="821" y="470" on="1"/>
        <pt x="921" y="520" on="1"/>
        <pt x="921" y="115" on="1"/>
        <pt x="921" y="68" on="0"/>
        <pt x="854" y="34" on="1"/>
        <pt x="787" y="0" on="0"/>
        <pt x="764" y="0" on="1"/>
        <pt x="741" y="0" on="0"/>
        <pt x="708" y="14" on="1"/>
      </contour>
    </TTGlyph>
    <TTGlyph name="u0EDD" xMin="70" yMin="0" xMax="921" yMax="520">
      <contour>
        <pt x="674" y="135" on="1"/>
        <pt x="821" y="68" on="1"/>
        <pt x="821" y="470" on="1"/>
        <pt x="921" y="520" on="1"/>
        <pt x="921" y="115" on="1"/>
        <pt x="921" y="68" on="0"/>
        <pt x="854" y="34" on="1"/>
        <pt x="787" y="0" on="0"/>
        <pt x="764" y="0" on="1"/>
        <pt x="741" y="0" on="0"/>
        <pt x="708" y="14" on="1"/>
        <pt x="651" y="38" on="1"/>
        <pt x="574" y="0" on="1"/>
        <pt x="514" y="85" on="1"/>
        <pt x="574" y="129" on="1"/>
        <pt x="574" y="385" on="1"/>
        <pt x="427" y="452" on="1"/>
        <pt x="427" y="115" on="1"/>
        <pt x="427" y="68" on="0"/>
        <pt x="360" y="34" on="1"/>
        <pt x="293" y="0" on="0"/>
        <pt x="270" y="0" on="1"/>
        <pt x="237" y="0" on="0"/>
        <pt x="204" y="14" on="1"/>
        <pt x="121" y="47" on="1"/>
        <pt x="70" y="68" on="0"/>
        <pt x="70" y="115" on="1"/>
        <pt x="70" y="227" on="1"/>
        <pt x="70" y="270" on="0"/>
        <pt x="130" y="332" on="0"/>
        <pt x="130" y="348" on="1"/>
        <pt x="130" y="391" on="1"/>
        <pt x="70" y="435" on="1"/>
        <pt x="130" y="520" on="1"/>
        <pt x="230" y="470" on="1"/>
        <pt x="230" y="348" on="1"/>
        <pt x="230" y="305" on="0"/>
        <pt x="170" y="243" on="0"/>
        <pt x="170" y="227" on="1"/>
        <pt x="170" y="135" on="1"/>
        <pt x="327" y="68" on="1"/>
        <pt x="327" y="520" on="1"/>
        <pt x="388" y="483" on="1"/>
        <pt x="391" y="485" on="0"/>
        <pt x="394" y="486" on="1"/>
        <pt x="461" y="520" on="0"/>
        <pt x="484" y="520" on="1"/>
        <pt x="507" y="520" on="0"/>
        <pt x="540" y="506" on="1"/>
        <pt x="623" y="473" on="1"/>
        <pt x="674" y="452" on="0"/>
        <pt x="674" y="405" on="1"/>
      </contour>
    </TTGlyph>
    <TTGlyph name="u0EDE" xMin="10" yMin="0" xMax="633" yMax="520">
      <contour>
        <pt x="370" y="246" on="1"/>
        <pt x="370" y="385" on="1"/>
        <pt x="203" y="452" on="1"/>
        <pt x="170" y="439" on="1"/>
        <pt x="170" y="50" on="1"/>
        <pt x="70" y="0" on="1"/>
        <pt x="10" y="85" on="1"/>
        <pt x="70" y="129" on="1"/>
        <pt x="70" y="388" on="1"/>
        <pt x="10" y="438" on="1"/>
        <pt x="70" y="520" on="1"/>
        <pt x="137" y="479" on="1"/>
        <pt x="203" y="506" on="1"/>
        <pt x="237" y="520" on="0"/>
        <pt x="270" y="520" on="1"/>
        <pt x="303" y="520" on="0"/>
        <pt x="336" y="506" on="1"/>
        <pt x="419" y="473" on="1"/>
        <pt x="470" y="452" on="0"/>
        <pt x="470" y="385" on="1"/>
        <pt x="470" y="246" on="1"/>
        <pt x="484" y="246" on="1"/>
        <pt x="551" y="381" on="1"/>
        <pt x="633" y="336" on="1"/>
        <pt x="562" y="176" on="1"/>
        <pt x="470" y="176" on="1"/>
        <pt x="470" y="50" on="1"/>
        <pt x="370" y="0" on="1"/>
        <pt x="370" y="176" on="1"/>
        <pt x="310" y="176" on="1"/>
        <pt x="204" y="282" on="1"/>
        <pt x="280" y="358" on="1"/>
        <pt x="356" y="282" on="1"/>
        <pt x="320" y="246" on="1"/>
      </contour>
    </TTGlyph>
    <TTGlyph name="u0EDF" xMin="70" yMin="0" xMax="639" yMax="520">
      <contour>
        <pt x="470" y="279" on="1"/>
        <pt x="470" y="115" on="1"/>
        <pt x="470" y="68" on="0"/>
        <pt x="420" y="48" on="1"/>
        <pt x="337" y="14" on="1"/>
        <pt x="303" y="0" on="0"/>
        <pt x="270" y="0" on="1"/>
        <pt x="237" y="0" on="0"/>
        <pt x="204" y="14" on="1"/>
        <pt x="121" y="47" on="1"/>
        <pt x="70" y="68" on="0"/>
        <pt x="70" y="115" on="1"/>
        <pt x="70" y="281" on="1"/>
        <pt x="127" y="304" on="1"/>
        <pt x="70" y="341" on="1"/>
        <pt x="70" y="470" on="1"/>
        <pt x="170" y="520" on="1"/>
        <pt x="230" y="435" on="1"/>
        <pt x="170" y="391" on="1"/>
        <pt x="170" y="321" on="1"/>
        <pt x="229" y="345" on="1"/>
        <pt x="270" y="254" on="1"/>
        <pt x="170" y="214" on="1"/>
        <pt x="170" y="135" on="1"/>
        <pt x="337" y="68" on="1"/>
        <pt x="370" y="81" on="1"/>
        <pt x="370" y="279" on="1"/>
        <pt x="316" y="279" on="1"/>
        <pt x="210" y="385" on="1"/>
        <pt x="286" y="461" on="1"/>
        <pt x="362" y="385" on="1"/>
        <pt x="326" y="349" on="1"/>
        <pt x="370" y="349" on="1"/>
        <pt x="370" y="470" on="1"/>
        <pt x="470" y="520" on="1"/>
        <pt x="470" y="349" on="1"/>
        <pt x="490" y="349" on="1"/>
        <pt x="557" y="484" on="1"/>
        <pt x="639" y="439" on="1"/>
        <pt x="568" y="279" on="1"/>
      </contour>
    </TTGlyph>
</ttFont>
